<?xml version="1.0" encoding="utf-8"?>
<svg xmlns="http://www.w3.org/2000/svg" xmlns:xlink="http://www.w3.org/1999/xlink" viewBox="0 0 540 380">
  <linearGradient id="linearGradient3301">
    <stop stop-color="#838484"/>
    <stop stop-color="#ffffff" offset="0.24682039"/>
    <stop stop-color="#e0dedd" offset="1"/>
  </linearGradient>
  <linearGradient id="linearGradient4161">
    <stop stop-color="#9b0000"/>
    <stop stop-color="#f30000" offset="1"/>
  </linearGradient>
  <linearGradient id="linearGradient4590">
    <stop stop-color="#efeeef"/>
    <stop stop-color="#fce15d" offset="0.58181816"/>
    <stop stop-color="#77611f" offset="0.80000001"/>
    <stop stop-color="#d5ad3b" offset="1"/>
  </linearGradient>
  <linearGradient id="linearGradient4540-Silver">
    <stop stop-color="#838484"/>
    <stop stop-color="#ffffff" offset="0.52032518"/>
    <stop stop-color="#e0dedd" offset="1"/>
  </linearGradient>
  <linearGradient id="linearGradient4508-Gold">
    <stop stop-color="#efeeef"/>
    <stop stop-color="#fce15d" offset="0.43859649"/>
    <stop stop-color="#77611f" offset="0.7368421"/>
    <stop stop-color="#d5ad3b" offset="1"/>
  </linearGradient>
  <filter id="filter3903" width="1.5" height="1.5" x="-0.25" y="-0.25" color-interpolation-filters="sRGB">
    <feGaussianBlur in="SourceAlpha" stdDeviation="1" result="blur"/>
    <feColorMatrix result="bluralpha" type="matrix" values="1 0 0 0 0 0 1 0 0 0 0 0 1 0 0 0 0 0 0.5 0"/>
    <feOffset in="bluralpha" dx="0" dy="2" result="offsetBlur"/>
    <feMerge>
      <feMergeNode in="offsetBlur"/>
      <feMergeNode in="SourceGraphic"/>
    </feMerge>
  </filter>
  <filter id="filter3931" width="1.5" height="1.5" x="-0.25" y="-0.25" color-interpolation-filters="sRGB">
    <feGaussianBlur in="SourceAlpha" stdDeviation="1" result="blur"/>
    <feColorMatrix result="bluralpha" type="matrix" values="1 0 0 0 0 0 1 0 0 0 0 0 1 0 0 0 0 0 0.5 0"/>
    <feOffset in="bluralpha" dx="0" dy="1" result="offsetBlur"/>
    <feMerge>
      <feMergeNode in="offsetBlur"/>
      <feMergeNode in="SourceGraphic"/>
    </feMerge>
  </filter>
  <linearGradient id="linearGradient4540-Silver-0">
    <stop stop-color="#838484"/>
    <stop stop-color="#ffffff" offset="0.52032518"/>
    <stop stop-color="#e0dedd" offset="1"/>
  </linearGradient>
  <linearGradient id="linearGradient4540-Silver-1">
    <stop stop-color="#838484"/>
    <stop stop-color="#ffffff" offset="0.52032518"/>
    <stop stop-color="#e0dedd" offset="1"/>
  </linearGradient>
  <linearGradient id="linearGradient4540-Silver-7">
    <stop stop-color="#838484"/>
    <stop stop-color="#ffffff" offset="0.52032518"/>
    <stop stop-color="#e0dedd" offset="1"/>
  </linearGradient>
  <linearGradient id="linearGradient4540-Silver-1-7">
    <stop stop-color="#838484"/>
    <stop stop-color="#ffffff" offset="0.52032518"/>
    <stop stop-color="#e0dedd" offset="1"/>
  </linearGradient>
  <linearGradient id="linearGradient4540-Silver-0-7">
    <stop stop-color="#838484"/>
    <stop stop-color="#ffffff" offset="0.52032518"/>
    <stop stop-color="#e0dedd" offset="1"/>
  </linearGradient>
  <linearGradient id="linearGradient3301-6">
    <stop stop-color="#838484"/>
    <stop stop-color="#ffffff" offset="0.24682039"/>
    <stop stop-color="#e0dedd" offset="1"/>
  </linearGradient>
  <filter id="filter3765" width="1.5" height="1.5" x="-0.25" y="-0.25" color-interpolation-filters="sRGB">
    <feGaussianBlur in="SourceAlpha" stdDeviation="1" result="blur"/>
    <feColorMatrix result="bluralpha" type="matrix" values="1 0 0 0 0 0 1 0 0 0 0 0 1 0 0 0 0 0 0.5 0"/>
    <feOffset in="bluralpha" dx="0" dy="1" result="offsetBlur"/>
    <feMerge>
      <feMergeNode in="offsetBlur"/>
      <feMergeNode in="SourceGraphic"/>
    </feMerge>
  </filter>
  <filter id="filter3779" width="1.5" height="1.5" x="-0.25" y="-0.25" color-interpolation-filters="sRGB">
    <feGaussianBlur in="SourceAlpha" stdDeviation="1" result="blur"/>
    <feColorMatrix result="bluralpha" type="matrix" values="1 0 0 0 0 0 1 0 0 0 0 0 1 0 0 0 0 0 0.5 0"/>
    <feOffset in="bluralpha" dx="0" dy="1" result="offsetBlur"/>
    <feMerge>
      <feMergeNode in="offsetBlur"/>
      <feMergeNode in="SourceGraphic"/>
    </feMerge>
  </filter>
  <filter id="filter3958" width="1.5" height="1.5" x="-0.25" y="-0.25" color-interpolation-filters="sRGB">
    <feGaussianBlur in="SourceAlpha" stdDeviation="1" result="blur"/>
    <feColorMatrix result="bluralpha" type="matrix" values="1 0 0 0 0 0 1 0 0 0 0 0 1 0 0 0 0 0 0.8 0"/>
    <feOffset in="bluralpha" dx="0" dy="1" result="offsetBlur"/>
    <feMerge>
      <feMergeNode in="offsetBlur"/>
      <feMergeNode in="SourceGraphic"/>
    </feMerge>
  </filter>
  <linearGradient xlink:href="#linearGradient4540-Silver" id="linearGradient3202" gradientUnits="userSpaceOnUse" x1="138" y1="118.36218" x2="263" y2="52.362183"/>
  <linearGradient xlink:href="#linearGradient4540-Silver" id="linearGradient3204" gradientUnits="userSpaceOnUse" x1="261" y1="58.362183" x2="138" y2="115.36218"/>
  <linearGradient xlink:href="#linearGradient4508-Gold" id="linearGradient3206" gradientUnits="userSpaceOnUse" x1="237.3445" y1="24.432528" x2="170.78571" y2="80.058609"/>
  <linearGradient xlink:href="#linearGradient4540-Silver" id="linearGradient3208" gradientUnits="userSpaceOnUse" x1="455.48898" y1="45.359806" x2="340.22296" y2="58.105499"/>
  <linearGradient xlink:href="#linearGradient4540-Silver" id="linearGradient3210" gradientUnits="userSpaceOnUse" x1="455.48898" y1="45.359806" x2="340.22296" y2="58.105499"/>
  <linearGradient xlink:href="#linearGradient4540-Silver" id="linearGradient3212" gradientUnits="userSpaceOnUse" x1="455.48898" y1="45.359806" x2="340.22296" y2="58.105499"/>
  <linearGradient xlink:href="#linearGradient4540-Silver" id="linearGradient3214" gradientUnits="userSpaceOnUse" x1="455.48898" y1="45.359806" x2="340.22296" y2="58.105499"/>
  <linearGradient xlink:href="#linearGradient4540-Silver" id="linearGradient3216" gradientUnits="userSpaceOnUse" x1="455.48898" y1="45.359806" x2="340.22296" y2="58.105499"/>
  <linearGradient xlink:href="#linearGradient4540-Silver" id="linearGradient3218" gradientUnits="userSpaceOnUse" x1="455.48898" y1="45.359806" x2="340.22296" y2="58.105499"/>
  <linearGradient xlink:href="#linearGradient4540-Silver" id="linearGradient3220" gradientUnits="userSpaceOnUse" x1="455.48898" y1="45.359806" x2="340.22296" y2="58.105499"/>
  <linearGradient xlink:href="#linearGradient4540-Silver" id="linearGradient3223" gradientUnits="userSpaceOnUse" x1="455.48898" y1="45.359806" x2="340.22296" y2="58.105499"/>
  <linearGradient xlink:href="#linearGradient4540-Silver" id="linearGradient3225" gradientUnits="userSpaceOnUse" x1="455.48898" y1="45.359806" x2="340.22296" y2="58.105499"/>
  <linearGradient xlink:href="#linearGradient4540-Silver" id="linearGradient3227" gradientUnits="userSpaceOnUse" x1="455.48898" y1="45.359806" x2="340.22296" y2="58.105499"/>
  <linearGradient xlink:href="#linearGradient4540-Silver" id="linearGradient3229" gradientUnits="userSpaceOnUse" x1="455.48898" y1="45.359806" x2="340.22296" y2="58.105499"/>
  <linearGradient xlink:href="#linearGradient4540-Silver" id="linearGradient3231" gradientUnits="userSpaceOnUse" x1="455.48898" y1="45.359806" x2="340.22296" y2="58.105499"/>
  <linearGradient xlink:href="#linearGradient4540-Silver" id="linearGradient3233" gradientUnits="userSpaceOnUse" x1="455.48898" y1="45.359806" x2="340.22296" y2="58.105499"/>
  <linearGradient xlink:href="#linearGradient4540-Silver" id="linearGradient3235" gradientUnits="userSpaceOnUse" x1="455.48898" y1="45.359806" x2="340.22296" y2="58.105499"/>
  <linearGradient xlink:href="#linearGradient4161" id="linearGradient3237" gradientUnits="userSpaceOnUse" x1="74.964287" y1="80.85714" x2="75.5" y2="27.285715"/>
  <linearGradient xlink:href="#linearGradient4540-Silver" id="linearGradient3239" gradientUnits="userSpaceOnUse" x1="75.5" y1="34.07143" x2="73.178574" y2="75.14286"/>
  <linearGradient xlink:href="#linearGradient4161" id="linearGradient3241" gradientUnits="userSpaceOnUse" x1="75.5" y1="43" x2="75.5" y2="88"/>
  <linearGradient xlink:href="#linearGradient4540-Silver" id="linearGradient3243" gradientUnits="userSpaceOnUse" x1="74.785713" y1="77.285713" x2="74.964287" y2="38.535713"/>
  <linearGradient xlink:href="#linearGradient4540-Silver" id="linearGradient3245" gradientUnits="userSpaceOnUse" gradientTransform="translate(129.69943,29.875554)" x1="-8.6494312" y1="56.620861" x2="-8.6494312" y2="50.749348"/>
  <linearGradient xlink:href="#linearGradient4540-Silver-1" id="linearGradient3247" gradientUnits="userSpaceOnUse" gradientTransform="translate(128.5833,33.884596)" x1="-8.6494312" y1="56.620861" x2="-8.6494312" y2="50.749348"/>
  <linearGradient xlink:href="#linearGradient4540-Silver" id="linearGradient3249" gradientUnits="userSpaceOnUse" gradientTransform="translate(32.516112,6.1285919)" x1="85.151276" y1="81.068703" x2="80.226784" y2="81.068703"/>
  <linearGradient xlink:href="#linearGradient4540-Silver" id="linearGradient3251" gradientUnits="userSpaceOnUse" gradientTransform="translate(33.014082,7.649792)" x1="85.466949" y1="74.502716" x2="77.196327" y2="74.439575"/>
  <linearGradient xlink:href="#linearGradient4540-Silver-0" id="linearGradient3253" gradientUnits="userSpaceOnUse" gradientTransform="translate(33.014078,16.799699)" x1="85.214409" y1="74.376442" x2="77.196327" y2="74.439575"/>
  <linearGradient xlink:href="#linearGradient3301" id="linearGradient3255" gradientUnits="userSpaceOnUse" gradientTransform="matrix(1,0,0,1.2972973,-0.1510996,-23.710907)" x1="117.53929" y1="85.23558" x2="108.7636" y2="85.23558"/>
  <linearGradient xlink:href="#linearGradient4540-Silver-7" id="linearGradient3257" gradientUnits="userSpaceOnUse" gradientTransform="translate(129.69943,29.875554)" x1="-8.6494312" y1="56.620861" x2="-8.6494312" y2="50.749348"/>
  <linearGradient xlink:href="#linearGradient4540-Silver-1-7" id="linearGradient3259" gradientUnits="userSpaceOnUse" gradientTransform="translate(128.5833,33.884596)" x1="-8.6494312" y1="56.620861" x2="-8.6494312" y2="50.749348"/>
  <linearGradient xlink:href="#linearGradient4540-Silver-7" id="linearGradient3261" gradientUnits="userSpaceOnUse" gradientTransform="translate(32.516112,6.1285919)" x1="85.151276" y1="81.068703" x2="80.226784" y2="81.068703"/>
  <linearGradient xlink:href="#linearGradient4540-Silver-7" id="linearGradient3263" gradientUnits="userSpaceOnUse" gradientTransform="translate(33.014082,7.649792)" x1="85.466949" y1="74.502716" x2="77.196327" y2="74.439575"/>
  <linearGradient xlink:href="#linearGradient4540-Silver-0-7" id="linearGradient3265" gradientUnits="userSpaceOnUse" gradientTransform="translate(33.014078,16.799699)" x1="85.214409" y1="74.376442" x2="77.196327" y2="74.439575"/>
  <linearGradient xlink:href="#linearGradient3301-6" id="linearGradient3267" gradientUnits="userSpaceOnUse" gradientTransform="matrix(1,0,0,1.2972973,-0.1510996,-23.710907)" x1="117.53929" y1="85.23558" x2="108.7636" y2="85.23558"/>
  <linearGradient xlink:href="#linearGradient4508-Gold" id="linearGradient3269" gradientUnits="userSpaceOnUse" gradientTransform="matrix(0.58770496,0,0,0.58770496,143.86091,56.099818)" x1="86.678665" y1="42.413242" x2="86.678665" y2="59.428581"/>
  <linearGradient xlink:href="#linearGradient4590" id="linearGradient3271" gradientUnits="userSpaceOnUse" gradientTransform="translate(-0.3243775,0)" x1="214" y1="57.362183" x2="214" y2="112.36218"/>
  <g transform="translate(-132.16406,247.94861) matrix(4.0570913,0,0,4.0570913,-408.84479,-402.01304)">
    <path d="M 166,38.362183 135.17857,96.290753 170,131.36218 l 60,0 35,-35.071427 -31,-57.92857 z" fill="url(#linearGradient3202)"/>
    <path d="M 142,96.362183 169.59545,43.338584 230.78883,43.295722 258,96.290753 l -30.03509,31.071427 -55.92982,0 z" fill="url(#linearGradient3204)"/>
    <path d="m 150,96.290753 25.08772,25.071427 49.82456,0 L 250,96.290753 226.68032,49.785056 173.76714,49.927712 z" fill="#19396b"/>
    <path d="m -118,38 c 0,1.104569 -0.89543,2 -2,2 -1.10457,0 -2,-0.895431 -2,-2 0,-1.104569 0.89543,-2 2,-2 1.10039,0 1.99409,0.888924 1.99997,1.989302" fill="#ececec" transform="translate(143.67857,85.862183)"/>
    <path d="m 149.214,57.362183 5.78571,-12 90.00029,0 6,12 z" fill="url(#linearGradient3206)" transform="matrix(1.0000797,0,0,0.95174446,-0.01595527,2.0320811)" stroke="#858585" stroke-width="0.5" filter="url(#filter3903)"/>
    <g fill="url(#linearGradient3235)" transform="matrix(0.33274763,0,0,0.33274763,52.684605,33.815426)">
      <g fill="url(#linearGradient3220)">
        <path fill="url(#linearGradient3208)" d="m 338.11058,62.308067 -6.592,0 c 0.25597,-0.938665 0.38397,-1.813331 0.384,-2.624 l 0,-14.912 -0.064,0 -7.008,17.536 -4.16,0 -6.88,-17.536 -0.064,0 0,14.912 c -1e-5,0.810669 0.12799,1.685335 0.384,2.624 l -3.52,0 c 0.256,-0.938665 0.38399,-1.813331 0.384,-2.624 l 0,-15.232 c -10e-6,-0.810648 -0.128,-1.685313 -0.384,-2.624 l 8.064,0 5.856,14.88 5.952,-14.88 7.648,0 c -0.25603,0.938687 -0.38403,1.813352 -0.384,2.624 l 0,15.232 c -3e-5,0.810669 0.12797,1.685335 0.384,2.624"/>
        <path fill="url(#linearGradient3210)" d="m 357.52758,59.204067 -0.512,3.104 -16.8,0 c 0.256,-0.938665 0.38399,-1.813331 0.384,-2.624 l 0,-15.232 c -10e-6,-0.810648 -0.128,-1.685313 -0.384,-2.624 l 16.8,0 0.512,3.104 c -0.85335,-0.319982 -1.85602,-0.479982 -3.008,-0.48 l -7.904,0 0,6.208 7.072,0 c 1.10931,1.2e-5 2.05865,-0.159988 2.848,-0.48 l 0,3.584 c -0.78935,-0.319991 -1.73869,-0.479991 -2.848,-0.48 l -7.072,0 0,6.4 7.904,0 c 1.15198,3e-6 2.15465,-0.159997 3.008,-0.48"/>
        <path fill="url(#linearGradient3212)" d="m 387.29808,62.308067 -6.592,0 c 0.25597,-0.938665 0.38397,-1.813331 0.384,-2.624 l 0,-14.912 -0.064,0 -7.008,17.536 -4.16,0 -6.88,-17.536 -0.064,0 0,14.912 c -1e-5,0.810669 0.12799,1.685335 0.384,2.624 l -3.52,0 c 0.256,-0.938665 0.38399,-1.813331 0.384,-2.624 l 0,-15.232 c -10e-6,-0.810648 -0.128,-1.685313 -0.384,-2.624 l 8.064,0 5.856,14.88 5.952,-14.88 7.648,0 c -0.25603,0.938687 -0.38403,1.813352 -0.384,2.624 l 0,15.232 c -3e-5,0.810669 0.12797,1.685335 0.384,2.624"/>
        <path fill="url(#linearGradient3214)" d="m 410.07508,58.276067 c -3e-5,2.688002 -1.34402,4.032 -4.032,4.032 l -12.224,0 c -2.68801,0 -4.03201,-1.343998 -4.032,-4.032 l 0,-12.416 c -10e-6,-2.687981 1.34399,-4.031979 4.032,-4.032 l 12.224,0 c 2.68798,2.1e-5 4.03197,1.344019 4.032,4.032 l 0,12.416 m -6.016,0.32 0,-13.056 c -2e-5,-0.725316 -0.36269,-1.087982 -1.088,-1.088 l -6.08,0 c -0.72534,1.8e-5 -1.08801,0.362684 -1.088,1.088 l 0,13.056 c -1e-5,0.725337 0.36266,1.088003 1.088,1.088 l 6.08,0 c 0.72531,3e-6 1.08798,-0.362663 1.088,-1.088"/>
        <path fill="url(#linearGradient3216)" d="m 433.80658,62.308067 -6.816,0 -3.52,-9.024 -4.48,0 0,6.4 c -1e-5,0.810669 0.12799,1.685335 0.384,2.624 l -6.784,0 c 0.256,-0.938665 0.38399,-1.813331 0.384,-2.624 l 0,-15.232 c -10e-6,-0.810648 -0.128,-1.685313 -0.384,-2.624 l 16.32,0 c 1.30131,2.1e-5 2.30398,0.35202 3.008,1.056 0.63998,0.661352 0.95998,1.578685 0.96,2.752 l 0,4.352 c -2e-5,1.984011 -1.05602,3.114676 -3.168,3.392 l 2.496,6.304 c 0.44798,1.130668 0.98131,2.005334 1.6,2.624 m -6.752,-13.024 0,-3.52 c -2e-5,-0.874649 -0.37335,-1.311982 -1.12,-1.312 l -6.944,0 0,6.208 6.944,0 c 0.74665,1.2e-5 1.11998,-0.458654 1.12,-1.376"/>
        <path fill="url(#linearGradient3218)" d="m 457.35508,41.828067 c -0.74669,0.725353 -1.45069,1.600019 -2.112,2.624 l -5.92,9.184 0,6.048 c -2e-5,0.810669 0.12798,1.685335 0.384,2.624 l -7.04,0 c 0.25599,-0.938665 0.38399,-1.813331 0.384,-2.624 l 0,-6.176 -5.92,-9.056 c -0.66134,-1.002647 -1.376,-1.877313 -2.144,-2.624 l 8.128,0 c -10e-6,0.746687 0.23465,1.482686 0.704,2.208 l 4.288,6.624 4.512,-7.072 c 0.31998,-0.490647 0.49064,-1.077313 0.512,-1.76 l 4.224,0"/>
      </g>
      <g fill="url(#linearGradient3233)">
        <path fill="url(#linearGradient3223)" d="m 485.54115,62.308067 -7.552,0 c 0.0426,-0.128 0.064,-0.298666 0.064,-0.512 -2e-5,-0.575999 -0.18135,-1.279998 -0.544,-2.112 l -1.408,-3.2 -9.312,0 -1.376,3.2 c -0.32001,0.746669 -0.48001,1.621335 -0.48,2.624 l -3.936,0 c 0.72533,-1.023999 1.248,-1.898664 1.568,-2.624 l 7.424,-16.512 -0.864,-1.344 6.688,0 8.128,17.856 c 0.61864,1.344002 1.15197,2.218667 1.6,2.624 m -10.624,-8.448 -3.488,-7.744 -3.424,7.744 6.912,0"/>
        <path fill="url(#linearGradient3225)" d="m 504.53765,59.204067 -0.512,3.104 -16.8,0 c 0.256,-0.938665 0.384,-1.813331 0.384,-2.624 l 0,-15.232 c 0,-0.810648 -0.128,-1.685313 -0.384,-2.624 l 6.784,0 c -0.25601,0.938687 -0.38401,1.813352 -0.384,2.624 l 0,15.232 7.904,0 c 1.15198,3e-6 2.15465,-0.159997 3.008,-0.48"/>
        <path fill="url(#linearGradient3227)" d="m 526.70565,51.012067 c -2e-5,2.709342 -1.57869,4.064008 -4.736,4.064 l -9.344,0 0,4.608 c -10e-6,0.810669 0.12799,1.685335 0.384,2.624 l -6.784,0 c 0.256,-0.938665 0.384,-1.813331 0.384,-2.624 l 0,-15.232 c 0,-0.810648 -0.128,-1.685313 -0.384,-2.624 l 15.744,0 c 3.15731,2.1e-5 4.73598,1.354686 4.736,4.064 l 0,5.12 m -5.824,-0.256 0,-4.608 c -2e-5,-0.639983 -0.10669,-1.077316 -0.32,-1.312 -0.21335,-0.255982 -0.60802,-0.383982 -1.184,-0.384 l -6.752,0 0,8 6.752,0 c 0.57598,1e-5 0.97065,-0.117323 1.184,-0.352 0.21331,-0.255989 0.31998,-0.703989 0.32,-1.344"/>
        <path fill="url(#linearGradient3229)" d="m 550.12165,62.308067 -6.784,0 c 0.25598,-0.938665 0.38398,-1.813331 0.384,-2.624 l 0,-6.4 -8.096,0 0,6.4 c -10e-6,0.810669 0.12799,1.685335 0.384,2.624 l -6.784,0 c 0.256,-0.938665 0.384,-1.813331 0.384,-2.624 l 0,-15.232 c 0,-0.810648 -0.128,-1.685313 -0.384,-2.624 l 6.784,0 c -0.25601,0.938687 -0.38401,1.813352 -0.384,2.624 l 0,6.208 8.096,0 0,-6.208 c -2e-5,-0.810648 -0.12802,-1.685313 -0.384,-2.624 l 6.784,0 c -0.25602,0.938687 -0.38402,1.813352 -0.384,2.624 l 0,15.232 c -2e-5,0.810669 0.12798,1.685335 0.384,2.624"/>
        <path fill="url(#linearGradient3231)" d="m 576.35365,62.308067 -7.552,0 c 0.0426,-0.128 0.064,-0.298666 0.064,-0.512 -2e-5,-0.575999 -0.18135,-1.279998 -0.544,-2.112 l -1.408,-3.2 -9.312,0 -1.376,3.2 c -0.32001,0.746669 -0.48001,1.621335 -0.48,2.624 l -3.936,0 c 0.72533,-1.023999 1.248,-1.898664 1.568,-2.624 l 7.424,-16.512 -0.864,-1.344 6.688,0 8.128,17.856 c 0.61864,1.344002 1.15197,2.218667 1.6,2.624 m -10.624,-8.448 -3.488,-7.744 -3.424,7.744 6.912,0"/>
      </g>
    </g>
    <path transform="translate(124.5,28.362183)" d="M 101,58.5 C 101,72.583261 89.583261,84 75.5,84 61.416739,84 50,72.583261 50,58.5 50,44.416739 61.416739,33 75.5,33 c 14.030023,0 25.42459,11.333778 25.49964,25.363601" fill="url(#linearGradient3237)"/>
    <path transform="translate(124.5,28.362183)" d="m 99.5,58.5 c 0,13.254834 -10.745166,24 -24,24 -13.254834,0 -24,-10.745166 -24,-24 0,-13.254834 10.745166,-24 24,-24 13.204728,0 23.929025,10.667086 23.999657,23.871624" fill="url(#linearGradient3239)"/>
    <path transform="translate(124.5,28.362183)" d="M 98,58.5 C 98,70.926407 87.926407,81 75.5,81 63.073593,81 53,70.926407 53,58.5 53,46.073593 63.073593,36 75.5,36 87.879432,36 97.933461,46.000393 97.999678,58.379648" fill="url(#linearGradient3241)"/>
    <path transform="translate(124.5,28.362183)" d="m 96.5,58.5 c 0,11.59798 -9.40202,21 -21,21 -11.59798,0 -21,-9.40202 -21,-21 0,-11.59798 9.40202,-21 21,-21 11.554137,0 20.937897,9.3337 20.9997,20.887671" fill="url(#linearGradient3243)"/>
    <path transform="translate(124.5,28.362183)" d="M 95,58.5 C 95,69.269553 86.269553,78 75.5,78 64.730447,78 56,69.269553 56,58.5 56,47.730447 64.730447,39 75.5,39 c 10.728841,0 19.442333,8.667007 19.499721,19.395695" fill="#19396b"/>
    <g transform="translate(61.71227,0.2008477)" filter="url(#filter3779)">
      <rect y="83.339684" x="116.63058" height="2.4622469" width="5.6821079" fill="url(#linearGradient3245)"/>
      <rect y="87.348732" x="115.51447" height="2.4622469" width="5.6821079" fill="url(#linearGradient3247)"/>
      <rect y="81.325775" x="113.1217" height="10.606602" width="5.5558391" fill="url(#linearGradient3249)"/>
      <rect y="81.331757" x="111.22057" height="1.5152289" width="8.0812206" fill="url(#linearGradient3251)"/>
      <rect y="90.481667" x="111.22057" height="1.5152289" width="8.0812206" fill="url(#linearGradient3253)"/>
      <rect y="84.981186" x="109.11757" height="3.0304577" width="7.2604713" fill="url(#linearGradient3255)"/>
    </g>
    <g filter="url(#filter3765)" transform="matrix(-1,0,0,1,339.22452,0.2008477)">
      <rect y="83.339684" x="116.63058" height="2.4622469" width="5.6821079" fill="url(#linearGradient3257)"/>
      <rect y="87.348732" x="115.51447" height="2.4622469" width="5.6821079" fill="url(#linearGradient3259)"/>
      <rect y="81.325775" x="113.1217" height="10.606602" width="5.5558391" fill="url(#linearGradient3261)"/>
      <rect y="81.331757" x="111.22057" height="1.5152289" width="8.0812206" fill="url(#linearGradient3263)"/>
      <rect y="90.481667" x="111.22057" height="1.5152289" width="8.0812206" fill="url(#linearGradient3265)"/>
      <rect y="84.981186" x="109.11757" height="3.0304577" width="7.2604713" fill="url(#linearGradient3267)"/>
    </g>
    <path fill="url(#linearGradient3269)" filter="url(#filter3958)" d="m 188.91406,81.805858 c -1.08138,9e-6 -1.82695,0.217439 -2.21875,0.65625 l -5.78125,6.4375 c -0.17239,0.188068 -0.25,0.374436 -0.25,0.5625 0,0.517182 0.4815,0.921074 1.4375,1.1875 0.45449,0.125377 0.92032,0.1875 1.4375,0.1875 1.11272,0 1.87387,-0.21743 2.25,-0.65625 l 4.40625,-5.15625 2.5625,2.75 c 0.28209,0.313445 0.76349,0.468752 1.46875,0.46875 0.39179,2e-6 0.7801,-0.06212 1.15625,-0.1875 0.50149,-0.156718 0.74998,-0.374054 0.75,-0.6875 -2e-5,-0.156717 -0.0466,-0.296541 -0.15625,-0.40625 l -4.46875,-4.4375 c -0.094,-0.07835 -0.20271,-0.124802 -0.34375,-0.1875 -0.57988,-0.344777 -1.32535,-0.531241 -2.25,-0.53125 z m 8.78125,0 c -0.61123,9e-6 -1.17024,0.09319 -1.71875,0.28125 -0.76795,0.235091 -1.15626,0.607922 -1.15625,1.09375 -1e-5,0.203745 0.0621,0.390114 0.21875,0.5625 l 5.8125,6.4375 c 1.58329,0.940872 3.3705,0.67306 5.125,0.8125 l 3.71875,0 c 0.39179,10e-7 0.81126,-0.04654 1.21875,-0.15625 0.54851,-0.172393 0.81249,-0.405401 0.8125,-0.6875 -1e-5,-0.297769 -0.26399,-0.530778 -0.8125,-0.6875 -0.40749,-0.109708 -0.82696,-0.156248 -1.21875,-0.15625 l -2,0 c -0.34479,2e-6 -0.65532,-0.04654 -0.96875,-0.15625 -0.43883,-0.156719 -0.65626,-0.389821 -0.65625,-0.65625 l 0,-1.09375 c -1e-5,-0.266422 0.21742,-0.468275 0.65625,-0.625 0.31343,-0.109698 0.62396,-0.187495 0.96875,-0.1875 l 4.0625,0 c 0.34477,5e-6 0.68655,0.0778 1,0.1875 0.43881,0.156725 0.65624,0.358578 0.65625,0.625 l 0,2.3125 c -1e-5,0.454493 0.35714,0.811841 1.09375,1.03125 0.53284,0.17239 1.09204,0.250001 1.65625,0.25 0.56418,10e-7 1.12338,-0.07761 1.65625,-0.25 0.73657,-0.235081 1.09373,-0.59243 1.09375,-1.03125 l 0,-5.0625 c -2e-5,-0.924649 -0.69885,-1.639156 -2.125,-2.125 -1.05004,-0.36045 -2.15288,-0.531241 -3.28125,-0.53125 l -9,0 c -0.40747,9e-6 -0.79579,0.04656 -1.15625,0.15625 -0.53285,0.141059 -0.78125,0.358488 -0.78125,0.65625 0,0.297779 0.26397,0.515208 0.8125,0.65625 0.37613,0.09404 0.74877,0.156257 1.15625,0.15625 l 7.21875,0 c 0.34477,7e-6 0.68655,0.04655 1,0.15625 0.43881,0.141057 0.65624,0.342908 0.65625,0.625 l 0,0.59375 -7.4375,0 c -1.12839,6e-6 -2.23122,0.186469 -3.28125,0.53125 -0.01,0.0035 -0.0213,-0.0035 -0.0312,0 l -2.75,-3.0625 c -0.39182,-0.438811 -1.13739,-0.656241 -2.21875,-0.65625 z" transform="matrix(1.1415335,0,0,1.1415335,-28.698135,-12.134772)"/>
    <path d="m 178.20278,66.132696 c 2.29876,-1.885095 4.92047,-5.915958 4.92047,-5.915958 0,0 -0.83976,0.04635 -1.95953,0.662185 -1.39416,0.766813 -3.12891,2.136371 -3.12891,2.136371 l 0.16966,-1.696005 c 0,0 -1.38138,1.094316 -2.26284,2.542319 -0.89942,1.477564 -1.29914,3.309553 -1.29914,3.309553 0,0 1.65599,0.523034 3.5603,-1.038465 z m -4.35973,5.493223 c 1.30462,-1.180679 2.24121,-2.843638 2.24121,-2.843638 0,0 -0.7968,0.396551 -1.53901,0.516382 -0.5394,0.087 -1.08999,-0.09228 -1.08999,-0.09228 0,0 -0.28633,-0.596832 -0.22868,-1.614709 0.0685,-1.212353 0.48302,-2.880063 0.48302,-2.880063 0,0 -1.54514,1.667077 -2.21344,3.672109 -0.18773,0.563046 -0.32834,1.148371 -0.43457,1.715325 -0.40932,1.907055 -0.32032,3.51712 -0.32032,3.51712 0,0 1.73635,-0.754988 3.10178,-1.990251 z m -2.44223,6.213794 c 1.05894,-1.16706 1.71511,-2.951117 1.71511,-2.951117 0,0 -0.89678,0.50044 -1.81858,0.713285 -0.70157,0.161851 -1.48885,0.05015 -1.48885,0.05015 0,0 -0.24642,-0.725849 -0.34461,-1.76442 -0.17505,-1.851205 -0.0795,-4.766002 -0.0795,-4.766002 0,0 -1.59528,2.8997 -1.66137,5.519829 -0.061,2.417631 1.23748,4.82671 1.23748,4.82671 0,0 1.42234,-0.506563 2.44033,-1.628435 z m -3.03421,7.310644 c 0,0 1.55136,-1.169805 2.3886,-2.535773 0.77156,-1.258807 0.83417,-2.722329 0.83417,-2.722329 0,0 -0.74823,0.408798 -1.54408,0.718247 -0.72775,0.283055 -1.50903,0.469083 -1.50903,0.469083 0,0 -0.86563,-0.945345 -1.39796,-2.187471 -0.80777,-1.884989 -1.4007,-4.34274 -1.4007,-4.34274 0,0 -0.85761,3.290972 -0.19458,5.964419 0.65142,2.626569 2.82358,4.636564 2.82358,4.636564 z m 0.42411,6.445327 c 0,0 1.06971,-1.127784 1.64627,-2.548654 0.60972,-1.502587 0.72839,-3.303114 0.72839,-3.303114 l -2.45944,2.204997 c 0,0 -1.32131,-0.875347 -2.45628,-2.376983 -1.55421,-2.056449 -3.05627,-4.916452 -3.05627,-4.916452 0,0 -0.1893,4.475769 1.22133,7.232622 1.38793,2.712828 4.376,3.707584 4.376,3.707584 z m 1.61134,5.936546 c 0,0 0.94439,-1.093683 1.24074,-2.501671 0.37311,-1.772233 0.11614,-3.943761 0.11614,-3.943761 0,0 -0.43012,0.899736 -0.97861,1.722294 -0.4619,0.692908 -1.05682,1.330811 -1.05682,1.330811 0,0 -1.54207,-0.62101 -3.04772,-2.04114 -2.11906,-1.998593 -4.50016,-5.252401 -4.50016,-5.252401 0,0 0.2196,4.852894 2.2372,7.437971 2.05286,2.630265 5.98923,3.247897 5.98923,3.247897 z m 3.30754,5.6821 c 0,0 0.57455,-1.53014 0.55429,-3.222238 -0.0222,-1.861763 -0.63906,-3.90153 -0.63906,-3.90153 l -1.95066,3.731549 c 0,0 -1.83199,0.05881 -3.6623,-0.903536 -2.24111,-1.178357 -4.56403,-3.421784 -4.56403,-3.421784 0,0 1.52021,4.241386 4.15397,6.222239 2.49343,1.87517 6.10779,1.4953 6.10779,1.4953 z m 3.98599,4.91888 c 0,0 0.26996,-1.72451 0.0146,-3.29604 -0.2933,-1.80454 -1.11712,-3.48851 -1.11712,-3.48851 0,0 -0.15615,1.2322 -0.52578,2.34056 -0.30206,0.9065 -0.83122,1.73011 -0.83122,1.73011 0,0 -1.04554,0.15457 -2.37772,0.0365 -1.91107,-0.16935 -4.32205,-0.63009 -4.32205,-0.63009 0,0 1.3021,1.80137 3.64698,2.64811 2.23182,0.80577 5.51234,0.65933 5.51234,0.65933 z m 1.86577,-2.96832 -0.33922,4.32521 c 0,0 -0.98251,0.38652 -2.29263,0.44047 -1.72694,0.0709 -3.89836,-0.18613 -3.89836,-0.18613 0,0 1.89946,1.62083 4.16336,2.1446 2.31512,0.53613 4.99596,-0.0243 4.99596,-0.0243 0,0 0.28601,-1.5294 -0.31832,-2.99187 -0.70283,-1.69991 -2.31079,-3.708 -2.31079,-3.708 z m 15.90301,8.91025 c -1.44874,-0.80007 -3.60581,-1.27749 -3.60581,-1.27749 0,0 -2.17269,-0.35443 -4.23378,-0.9558 -2.00905,-0.58606 -3.90787,-1.41886 -3.90787,-1.41886 0,0 0.42633,1.06116 0.19712,1.79493 -0.1913,0.61204 -1.04511,0.91895 -1.04511,0.91895 l 1.86566,0.59367 c 0,0 4.71047,0.13704 7.46459,0.585 2.44286,0.39729 2.96683,1.1109 2.96683,1.1109 0,0 -0.29814,0.31356 -1.34758,0.4827 -1.49817,0.24167 -3.74095,0.19574 -3.74095,0.19574 l 1.61133,1.52655 c 0,0 1.76601,0.2158 3.29108,-0.22625 1.395,-0.40437 2.56069,-1.46996 2.56069,-1.46996 0,0 -0.68489,-1.09189 -2.07619,-1.86008 z m 26.33305,-47.942444 c 1.90432,1.561499 3.56021,1.038254 3.56021,1.038254 0,0 -0.39962,-1.832095 -1.29914,-3.309554 -0.88136,-1.448108 -2.26276,-2.542318 -2.26276,-2.542318 l 0.16946,1.696005 c 0,0 -1.73486,-1.369663 -3.12902,-2.136371 -1.11955,-0.615837 -1.95942,-0.662185 -1.95942,-0.662185 0,0 2.62192,4.031074 4.92067,5.916169 z m 4.35985,5.493223 c 1.36533,1.235157 3.10156,1.990462 3.10156,1.990462 0,0 0.0891,-1.608058 -0.31936,-3.513847 -0.10622,-0.567904 -0.24727,-1.154601 -0.43531,-1.718704 -0.66852,-2.005137 -2.21344,-3.672108 -2.21344,-3.672108 0,0 0.41428,1.66771 0.48292,2.880062 0.0575,1.017983 -0.22868,1.61471 -0.22868,1.61471 0,0 -0.55059,0.179271 -1.08999,0.09227 -0.74211,-0.119831 -1.53891,-0.516383 -1.53891,-0.516383 0,0 0.93638,1.66296 2.24121,2.843533 z m 0.7269,3.262572 c 0,0 0.65638,1.784057 1.71501,2.951116 1.01831,1.121872 2.44043,1.628436 2.44043,1.628436 0,0 1.2983,-2.408974 1.23748,-4.82671 -0.066,-2.620235 -1.66137,-5.51983 -1.66137,-5.51983 0,0 0.0957,2.914587 -0.0794,4.766003 -0.0984,1.03857 -0.34481,1.764419 -0.34481,1.764419 0,0 -0.78729,0.111913 -1.48885,-0.05015 -0.92149,-0.21274 -1.81848,-0.713285 -1.81848,-0.713285 z m 3.07042,5.722011 c -0.79553,-0.309449 -1.54386,-0.718247 -1.54386,-0.718247 0,0 0.0627,1.463522 0.83406,2.722329 0.83724,1.365968 2.38849,2.535773 2.38849,2.535773 0,0 2.17237,-2.009995 2.82358,-4.636564 0.66292,-2.673447 -0.19448,-5.964419 -0.19448,-5.964419 0,0 -0.59303,2.457645 -1.40102,4.342635 -0.53243,1.242231 -1.39785,2.187576 -1.39785,2.187576 0,0 -0.78096,-0.186134 -1.50892,-0.469083 z m 1.33968,7.338516 -2.45944,-2.204996 c 0,0 0.11835,1.800527 0.72828,3.303113 0.57635,1.42087 1.64618,2.548654 1.64618,2.548654 0,0 2.98817,-0.994756 4.3761,-3.707478 1.41042,-2.756959 1.22112,-7.232622 1.22112,-7.232622 0,0 -1.50206,2.860003 -3.05617,4.916452 -1.13486,1.501425 -2.45606,2.376877 -2.45606,2.376877 z m 2.03016,4.149851 c -1.50597,1.420129 -3.04793,2.041139 -3.04793,2.041139 0,0 -0.59515,-0.638113 -1.05705,-1.330811 -0.54806,-0.822452 -0.9785,-1.722294 -0.9785,-1.722294 0,0 -0.25719,2.171318 0.11614,3.943761 0.29657,1.407989 1.24075,2.501671 1.24075,2.501671 0,0 3.93648,-0.617737 5.98944,-3.247896 2.0177,-2.584972 2.23709,-7.437972 2.23709,-7.437972 0,0 -2.3812,3.253809 -4.49994,5.252402 z m -4.99849,7.723242 -1.95076,-3.731549 c 0,0 -0.61679,2.039767 -0.63907,3.90153 -0.0202,1.691888 0.5545,3.222238 0.5545,3.222238 0,0 3.61415,0.37987 6.10769,-1.4953 2.63364,-1.980853 4.15407,-6.222239 4.15407,-6.222239 0,0 -2.32314,2.243427 -4.56403,3.421784 -1.83041,0.962343 -3.6624,0.903536 -3.6624,0.903536 z m -3.56199,5.597219 c 0,0 -0.52894,-0.82361 -0.831,-1.73011 -0.36952,-1.10836 -0.52578,-2.34056 -0.52578,-2.34056 0,0 -0.82382,1.68397 -1.11701,3.48851 -0.2555,1.57153 0.0145,3.29604 0.0145,3.29604 0,0 3.28052,0.14665 5.51254,-0.65933 2.345,-0.84684 3.64699,-2.64811 3.64699,-2.64811 0,0 -2.4112,0.46053 -4.32225,0.63009 -1.33229,0.11793 -2.37794,-0.0365 -2.37794,-0.0365 z m -1.69336,4.51124 c -1.31023,-0.054 -2.29263,-0.44047 -2.29263,-0.44047 l -0.33922,-4.32521 c 0,0 -1.60795,2.00809 -2.31079,3.708 -0.60443,1.46247 -0.31842,2.99187 -0.31842,2.99187 0,0 2.68073,0.56062 4.99574,0.0243 2.26391,-0.52398 4.16357,-2.1446 4.16357,-2.1446 0,0 -2.17131,0.25708 -3.89825,0.18613 z m -6.98441,2.28735 c -0.22931,-0.73377 0.19711,-1.79493 0.19711,-1.79493 0,0 -1.89892,0.83301 -3.90807,1.41886 -2.06099,0.60116 -4.23368,0.9558 -4.23368,0.9558 0,0 -2.15717,0.47732 -3.6057,1.27749 -1.39131,0.76819 -2.07651,1.86039 -2.07651,1.86039 0,0 1.1659,1.0656 2.56069,1.46997 1.52508,0.44205 3.29129,0.22625 3.29129,0.22625 l 1.61133,-1.52655 c 0,0 -2.2429,0.046 -3.74126,-0.19575 -1.04923,-0.16934 -1.34739,-0.4827 -1.34739,-0.4827 0,0 0.52399,-0.71381 2.96696,-1.11089 2.7541,-0.44797 7.46447,-0.58501 7.46447,-0.58501 l 1.86577,-0.59366 c 2.1e-4,-3.2e-4 -0.8537,-0.30723 -1.04501,-0.91927 z" fill="url(#linearGradient3271)" filter="url(#filter3931)"/>
  </g>
</svg>